<?xml version="1.0" encoding="utf-8"?>
<svg version="1.1" xmlns:xlink="http://www.w3.org/1999/xlink" width="36px" height="33px" xmlns="http://www.w3.org/2000/svg">
  <g transform="matrix(1 0 0 1 -44 -105 )">
    <path d="M 35.4375 22.601562499999996  C 35.8125 23.00260416666666  36 23.489583333333336  36 24.062500000000004  L 36 30.9375  C 36 31.510416666666668  35.8125 31.997395833333332  35.4375 32.3984375  C 35.0625 32.79947916666667  34.60714285714286 33  34.07142857142857 33  L 27.642857142857146 33  C 27.10714285714286 33  26.65178571428572 32.79947916666667  26.276785714285715 32.3984375  C 25.901785714285715 31.997395833333332  25.714285714285715 31.510416666666668  25.714285714285715 30.9375  L 25.714285714285715 24.062500000000004  C 25.714285714285715 23.489583333333336  25.901785714285715 23.00260416666666  26.276785714285715 22.601562499999996  C 26.65178571428572 22.200520833333336  27.10714285714286 22.000000000000004  27.642857142857146 22.000000000000004  L 29.57142857142857 22.000000000000004  L 29.57142857142857 17.875000000000004  L 19.285714285714285 17.875000000000004  L 19.285714285714285 22.000000000000004  L 21.214285714285715 22.000000000000004  C 21.750000000000004 22.000000000000004  22.205357142857146 22.200520833333336  22.580357142857146 22.601562499999996  C 22.955357142857142 23.00260416666666  23.142857142857146 23.489583333333336  23.142857142857146 24.062500000000004  L 23.142857142857146 30.9375  C 23.142857142857146 31.510416666666668  22.955357142857142 31.997395833333332  22.580357142857146 32.3984375  C 22.205357142857146 32.79947916666667  21.750000000000004 33  21.214285714285715 33  L 14.785714285714285 33  C 14.250000000000002 33  13.794642857142858 32.79947916666667  13.419642857142858 32.3984375  C 13.04464285714286 31.997395833333332  12.857142857142858 31.510416666666668  12.857142857142858 30.9375  L 12.857142857142858 24.062500000000004  C 12.857142857142858 23.489583333333336  13.04464285714286 23.00260416666666  13.419642857142858 22.601562499999996  C 13.794642857142858 22.200520833333336  14.250000000000002 22.000000000000004  14.785714285714285 22.000000000000004  L 16.714285714285715 22.000000000000004  L 16.714285714285715 17.875000000000004  L 6.428571428571429 17.875000000000004  L 6.428571428571429 22.000000000000004  L 8.357142857142858 22.000000000000004  C 8.892857142857144 22.000000000000004  9.348214285714286 22.200520833333336  9.723214285714285 22.601562499999996  C 10.098214285714286 23.00260416666666  10.285714285714285 23.489583333333336  10.285714285714285 24.062500000000004  L 10.285714285714285 30.9375  C 10.285714285714285 31.510416666666668  10.098214285714286 31.997395833333332  9.723214285714285 32.3984375  C 9.348214285714286 32.79947916666667  8.892857142857144 33  8.357142857142858 33  L 1.9285714285714284 33  C 1.3928571428571432 33  0.9375 32.79947916666667  0.5625 32.3984375  C 0.1875 31.997395833333332  0 31.510416666666668  0 30.9375  L 0 24.062500000000004  C 0 23.489583333333336  0.1875 23.00260416666666  0.5625 22.601562499999996  C 0.9375 22.200520833333336  1.3928571428571432 22.000000000000004  1.9285714285714284 22.000000000000004  L 3.8571428571428568 22.000000000000004  L 3.8571428571428568 17.875000000000004  C 3.8571428571428568 17.13020833333333  4.111607142857142 16.485677083333332  4.6205357142857135 15.941406249999998  C 5.129464285714286 15.397135416666664  5.732142857142858 15.125000000000002  6.428571428571429 15.125000000000002  L 16.714285714285715 15.125000000000002  L 16.714285714285715 11.000000000000002  L 14.785714285714285 11.000000000000002  C 14.250000000000002 11.000000000000002  13.794642857142858 10.799479166666663  13.419642857142858 10.398437499999998  C 13.04464285714286 9.997395833333332  12.857142857142858 9.510416666666663  12.857142857142858 8.937500000000002  L 12.857142857142858 2.0625  C 12.857142857142858 1.4895833333333317  13.04464285714286 1.002604166666662  13.419642857142858 0.6015624999999988  C 13.794642857142858 0.2005208333333317  14.250000000000002 0  14.785714285714285 0  L 21.214285714285715 0  C 21.750000000000004 0  22.205357142857146 0.2005208333333317  22.580357142857146 0.6015624999999988  C 22.955357142857142 1.002604166666662  23.142857142857146 1.4895833333333317  23.142857142857146 2.0625  L 23.142857142857146 8.937500000000002  C 23.142857142857146 9.510416666666663  22.955357142857142 9.997395833333332  22.580357142857146 10.398437499999998  C 22.205357142857146 10.799479166666663  21.750000000000004 11.000000000000002  21.214285714285715 11.000000000000002  L 19.285714285714285 11.000000000000002  L 19.285714285714285 15.125000000000002  L 29.57142857142857 15.125000000000002  C 30.267857142857142 15.125000000000002  30.87053571428572 15.397135416666664  31.379464285714285 15.941406249999998  C 31.88839285714286 16.485677083333332  32.142857142857146 17.13020833333333  32.142857142857146 17.875000000000004  L 32.142857142857146 22.000000000000004  L 34.07142857142857 22.000000000000004  C 34.60714285714286 22.000000000000004  35.0625 22.200520833333336  35.4375 22.601562499999996  Z " fill-rule="nonzero" fill="#027db4" stroke="none" transform="matrix(1 0 0 1 44 105 )" />
  </g>
</svg>