<svg id="图层_1" data-name="图层 1" xmlns="http://www.w3.org/2000/svg" xmlns:xlink="http://www.w3.org/1999/xlink" viewBox="0 0 477.64 113.39"><defs><style>.cls-1{fill:#5cb531;}.cls-2{fill:url(#linear-gradient);}.cls-3{fill:url(#linear-gradient-2);}.cls-4{fill:url(#linear-gradient-3);}.cls-5{fill:url(#linear-gradient-4);}.cls-6{fill:url(#linear-gradient-5);}.cls-7{fill:url(#linear-gradient-6);}.cls-8{fill:url(#linear-gradient-7);}.cls-9{fill:url(#linear-gradient-8);}</style><linearGradient id="linear-gradient" x1="2664.59" y1="2023.07" x2="2719.89" y2="2017.4" gradientTransform="matrix(0.99, -0.1, -0.1, -0.99, -2381.93, 2724.63)" gradientUnits="userSpaceOnUse"><stop offset="0" stop-color="#8fc31f"/><stop offset="0.05" stop-color="#80bd22"/><stop offset="0.19" stop-color="#59af2b"/><stop offset="0.33" stop-color="#39a232"/><stop offset="0.49" stop-color="#209938"/><stop offset="0.64" stop-color="#0e923c"/><stop offset="0.81" stop-color="#038e3e"/><stop offset="1" stop-color="#008d3f"/></linearGradient><linearGradient id="linear-gradient-2" x1="2683.05" y1="2018.67" x2="2726.91" y2="2010.26" gradientTransform="matrix(0.99, -0.1, -0.1, -0.99, -2381.93, 2724.63)" gradientUnits="userSpaceOnUse"><stop offset="0" stop-color="#8fc31f"/><stop offset="0.19" stop-color="#79bb24"/><stop offset="0.58" stop-color="#42a630"/><stop offset="1" stop-color="#008d3f"/></linearGradient><linearGradient id="linear-gradient-3" x1="3359.63" y1="1373.23" x2="3414.94" y2="1367.57" gradientTransform="matrix(-0.1, -0.99, -0.99, 0.1, 1850.65, 3675.36)" xlink:href="#linear-gradient"/><linearGradient id="linear-gradient-4" x1="3378.09" y1="1368.84" x2="3421.96" y2="1360.43" gradientTransform="matrix(-0.1, -0.99, -0.99, 0.1, 1850.65, 3675.36)" xlink:href="#linear-gradient-2"/><linearGradient id="linear-gradient-5" x1="2826.42" y1="634.59" x2="2881.71" y2="628.92" gradientTransform="matrix(-0.99, 0.1, 0.1, 0.99, 2921.82, -525.7)" xlink:href="#linear-gradient"/><linearGradient id="linear-gradient-6" x1="2844.87" y1="630.19" x2="2888.74" y2="621.78" gradientTransform="matrix(-0.99, 0.1, 0.1, 0.99, 2921.82, -525.7)" xlink:href="#linear-gradient-2"/><linearGradient id="linear-gradient-7" x1="2191.53" y1="1141.39" x2="2246.84" y2="1135.72" gradientTransform="matrix(0.1, 0.99, 0.99, -0.1, -1263.54, -1702.83)" xlink:href="#linear-gradient"/><linearGradient id="linear-gradient-8" x1="2209.99" y1="1136.99" x2="2253.86" y2="1128.58" gradientTransform="matrix(0.1, 0.99, 0.99, -0.1, -1263.54, -1702.83)" xlink:href="#linear-gradient-2"/></defs><title>国民健康logo（终稿）(1)</title><path id="_复合路径_" data-name="&lt;复合路径&gt;" class="cls-1" d="M377.05,390.41c0,3.9,3,7.44,8.38,10,5,2.35,11.59,3.4,21.26,3.4h23.7v-6.14H407.66a81.12,81.12,0,0,1-8.94-.43,19.46,19.46,0,0,1-6.53-1.8l-1-.51L434,389.47a11.89,11.89,0,0,0-.9-3.3c-.74-1.75-5.5-10.52-27.28-10.52h-1.32c-8.29.13-15.58,1.83-20.52,4.79C379.45,383.18,377.05,386.62,377.05,390.41Zm11.21-1.07a6.73,6.73,0,0,1,3-4.3c3.54-2.43,8.48-3.66,14.67-3.66,9.89,0,13.12,2.85,14.05,4.07l.33.44-32.13,3.95Z" transform="translate(-61.97 -360.39)"/><path id="_复合路径_2" data-name="&lt;复合路径&gt;" class="cls-1" d="M283.38,375.65c-9,0-16.47,1.84-21.68,5.33-3.61,2.42-5.51,5.48-5.5,8.84,0,3.92,2,7.13,6,9.55,7.38,4.51,18.63,5,23.13,5l14.1,0H311.8V391.46c0-4.71-2.16-8.46-6.42-11.13C300.49,377.27,292.88,375.65,283.38,375.65ZM300,398.12H285.06c-5.17,0-9.92-1-13-2.77-2.66-1.5-4.07-3.62-4-6a5.5,5.5,0,0,1,2.64-4.1c2.84-2.06,7.07-3.07,12.94-3.07,13.31,0,16.23,5,16.33,9.12Z" transform="translate(-61.97 -360.39)"/><path id="_复合路径_3" data-name="&lt;复合路径&gt;" class="cls-1" d="M539.6,404.34V391.46c0-4.71-2.15-8.46-6.41-11.13-4.89-3.06-12.5-4.68-22-4.68-9,0-16.47,1.84-21.67,5.33-3.61,2.42-5.51,5.48-5.5,8.84,0,3.92,2,7.13,6,9.55,7.38,4.51,18.63,5,23.13,5l14.1,0Zm-26.51-6.21h-.22c-5.17,0-9.92-1-13-2.77-2.67-1.5-4.07-3.62-4-6a5.49,5.49,0,0,1,2.63-4.1c2.85-2.06,7.08-3.07,12.94-3.07,13.32,0,16.24,5,16.34,9.12v6.79h-14.7Z" transform="translate(-61.97 -360.39)"/><path id="_路径_" data-name="&lt;路径&gt;" class="cls-1" d="M357.65,384.41a5.51,5.51,0,0,1,2.79,5v14.37h11.82V389c.09-3.29-1.39-5.84-4.8-8.28-4.64-3.31-12-5.06-21.38-5.06a52,52,0,0,0-13.57,1.59l-.81.22v-9.22H319.91v35.54h11.81V389.4a5.54,5.54,0,0,1,2.8-5c2.47-1.64,6.47-2.5,11.56-2.5S355.17,382.77,357.65,384.41Z" transform="translate(-61.97 -360.39)"/><path id="_路径_2" data-name="&lt;路径&gt;" class="cls-1" d="M477.41,385.11H454v-2.06c.13-5.32,5.22-7.85,16-7.94h8v-6.56h-7.42c-9.51,0-17.11,1.62-22,4.69-4.62,2.89-6.42,5.68-6.42,9.94v20.61H454V391.36H477.4Z" transform="translate(-61.97 -360.39)"/><path id="_路径_3" data-name="&lt;路径&gt;" class="cls-1" d="M245.64,380.71c-4.64-3.31-12.79-5.06-21.38-5.06a221.12,221.12,0,0,0-24.81,1.7v26.43h11.82V383.15s4.5-1.24,13-1.24c5.1,0,9.1.86,11.58,2.5a5.51,5.51,0,0,1,2.79,5v14.37h11.81V389C250.54,385.7,249.06,383.15,245.64,380.71Z" transform="translate(-61.97 -360.39)"/><path id="_复合路径_4" data-name="&lt;复合路径&gt;" class="cls-1" d="M241.31,415.74h-34.1a7.54,7.54,0,0,0-7.76,7.29v34.83a7.52,7.52,0,0,0,7.76,7.24h34.1a7.53,7.53,0,0,0,7.77-7.24V423A7.55,7.55,0,0,0,241.31,415.74Zm1.41,7.29v34.83a2.58,2.58,0,0,1-2.69,2.46H208.49a2.58,2.58,0,0,1-2.68-2.46V423a2.6,2.6,0,0,1,2.68-2.52H240A2.61,2.61,0,0,1,242.72,423Z" transform="translate(-61.97 -360.39)"/><path id="_路径_4" data-name="&lt;路径&gt;" class="cls-1" d="M235.58,449.59v1.17a1.14,1.14,0,0,1-1.14,1.15h-7V441.66H237a2.21,2.21,0,0,0,2.22-2.22v-2.55H227.44V429H237a2.22,2.22,0,0,0,2.22-2.22v-2.56H211.49a2.22,2.22,0,0,0-2.22,2.22V429h11.82v7.85h-9.52a2.21,2.21,0,0,0-2.22,2.22v2.55h11.74v10.25H210.2a2.21,2.21,0,0,0-2.21,2.22v2.55h28.92a3.75,3.75,0,0,0,3.75-3.75v-5.58h-2.84A2.24,2.24,0,0,0,235.58,449.59Z" transform="translate(-61.97 -360.39)"/><g id="_编组_" data-name="&lt;编组&gt;"><path id="_路径_5" data-name="&lt;路径&gt;" class="cls-1" d="M390.9,423.17h36.16a1.9,1.9,0,0,0,1.9-1.89v-2.86H412.52V414.7h-4.35a1.89,1.89,0,0,0-1.89,1.89v1.83H390.11c-3.78,0-7.78,2.52-7.78,7.2,0,.25-.15,25-2.51,38.4v.08l2.91.49a2.81,2.81,0,0,0,.65.07,2.69,2.69,0,0,0,2.67-2.31c1.45-10.75,2-35.75,2-36A2.88,2.88,0,0,1,390.9,423.17Z" transform="translate(-61.97 -360.39)"/><path id="_路径_6" data-name="&lt;路径&gt;" class="cls-1" d="M404,450.67a2,2,0,0,0-2.63-.45l-2.12,1.4-5.47-4.88-1.5,1.43a2.57,2.57,0,0,0,.05,3.79l2.68,2.41-7.12,4.7,1.48,1.94a2.46,2.46,0,0,0,2,1,2.42,2.42,0,0,0,1.36-.41L405.77,453Z" transform="translate(-61.97 -360.39)"/><path id="_复合路径_5" data-name="&lt;复合路径&gt;" class="cls-1" d="M421.2,446.37a6.56,6.56,0,0,0,6.75-6.32v-1h.81a1.89,1.89,0,0,0,1.89-1.89v-2.81H428v-1.3a6.56,6.56,0,0,0-6.75-6.32h-8.68v-3.13h-4.35a1.89,1.89,0,0,0-1.89,1.9v1.23H392.86a1.9,1.9,0,0,0-1.89,1.9v2.8h15.31v2.92H390.46a1.91,1.91,0,0,0-1.9,1.9v2.8h17.72v2.6H392.86a1.9,1.9,0,0,0-1.89,1.9v2.8h15.31v11.39a2.68,2.68,0,0,1-2.76,2.59h-1.77a1.9,1.9,0,0,0-1.9,1.89v2.81h4.95a7.56,7.56,0,0,0,7.7-6.85h0v-.29c0-.05,0-.11,0-.16v-4l13.69,9.81a2.18,2.18,0,0,0,1.29.41,2.23,2.23,0,0,0,1.72-.8l1.71-2.06-9.37-6.73,7.3-4.05-1.13-1.78a2.84,2.84,0,0,0-2.41-1.32,2.73,2.73,0,0,0-1.39.37l-6.66,3.74L412.51,448v-1.59Zm.5-7.3v1a1.69,1.69,0,0,1-1.78,1.62h-7.4v-2.6Zm-9.18-7.62h7.4a1.7,1.7,0,0,1,1.78,1.62v1.3h-9.18Z" transform="translate(-61.97 -360.39)"/><path id="_复合路径_6" data-name="&lt;复合路径&gt;" class="cls-1" d="M370.86,424.81a6.57,6.57,0,0,0-6.69-6.27h-4.52V414.7H355.3a1.9,1.9,0,0,0-1.9,1.89v2h-6.85a1.9,1.9,0,0,0-1.89,1.9v2.8h8.74V427h-7.6a1.9,1.9,0,0,0-1.89,1.9v2.8h9.49v3.62h-6.85a1.89,1.89,0,0,0-1.89,1.89v2.86h8.74v3.14h-8.17a1.89,1.89,0,0,0-1.89,1.89v2.81H353.4v2.92h-8.17a1.89,1.89,0,0,0-1.89,1.89v2.8H353.4v4.25h4.35a1.9,1.9,0,0,0,1.9-1.9v-2.35H369a1.89,1.89,0,0,0,1.9-1.89v-2.8H359.65v-2.92H369a1.9,1.9,0,0,0,1.9-1.9v-2.8H359.65v-3.14h4.52a6.5,6.5,0,0,0,6.69-6.27v-2.1h.39a1.9,1.9,0,0,0,1.89-1.9V427h-2.28Zm-11.21,6.91h6.24v2.1a1.61,1.61,0,0,1-1.72,1.52h-4.52Zm4.52-8.48a1.62,1.62,0,0,1,1.72,1.57V427h-6.24v-3.78Z" transform="translate(-61.97 -360.39)"/><path id="_路径_7" data-name="&lt;路径&gt;" class="cls-1" d="M340.38,456.21c1.48-4.77,2.74-14.59,3.1-18a1.87,1.87,0,0,0-.47-1.46,1.89,1.89,0,0,0-1.41-.63h-1.23c1.51-4.06,2.42-11.43,2.84-15.47a2.64,2.64,0,0,0-.67-2.05,2.67,2.67,0,0,0-2-.88h-6.14a1.9,1.9,0,0,0-1.9,1.89v2.8h5a56.33,56.33,0,0,1-3.12,13.71,1.9,1.9,0,0,0-1.84,1.9v2.8h5.36a94.56,94.56,0,0,1-1.59,10c-.32-.58-.63-1.16-.93-1.77l0-.07L333,450a2.21,2.21,0,0,0-1.18,1.31,2.11,2.11,0,0,0,.16,1.72,32.12,32.12,0,0,0,2.65,4c-.52,1.63-.84,2.58-1.24,3.59a2.06,2.06,0,0,0,1.12,2.67l2.89,1.2,0-.07a28.36,28.36,0,0,0,1.34-3.26A19.19,19.19,0,0,0,351,465.05h18.72a1.9,1.9,0,0,0,1.9-1.9v-2.8H351A14.24,14.24,0,0,1,340.38,456.21Z" transform="translate(-61.97 -360.39)"/><path id="_路径_8" data-name="&lt;路径&gt;" class="cls-1" d="M326.1,417.88a3.29,3.29,0,0,0-2.19.73l-8.08,7.08-.07.06,2,2a2.25,2.25,0,0,0,1.6.66,2.21,2.21,0,0,0,1.49-.56l2.79-2.48v39.66h3.95a2.44,2.44,0,0,0,2.44-2.44v-41.8C330,419.06,328,417.88,326.1,417.88Z" transform="translate(-61.97 -360.39)"/></g><path id="_复合路径_7" data-name="&lt;复合路径&gt;" class="cls-1" d="M287.87,435.59h12.19a7.5,7.5,0,0,0,7.71-7.24v-5.22c0-3.89-3.53-7.18-7.71-7.18H268.3a7.43,7.43,0,0,0-7.65,7.18v34a7.43,7.43,0,0,0,7.65,7.18h8.56v-2.27a2.5,2.5,0,0,0-2.5-2.5h-4.78a2.49,2.49,0,0,1-2.57-2.41V447h19.78c3.8,5.7,10.19,13.52,19.33,18.91l.06,0,2-2.32a2.73,2.73,0,0,0-.46-4A68.86,68.86,0,0,1,294.6,447h13.06a2.41,2.41,0,0,0,2.4-2.4v-2.38H291.27A44.36,44.36,0,0,1,287.87,435.59ZM267,430.81v-7.68a2.49,2.49,0,0,1,2.57-2.41h29.2a2.53,2.53,0,0,1,2.63,2.41v5.22a2.58,2.58,0,0,1-2.63,2.46Zm16.86,11.4H267v-6.62h13.61A60.27,60.27,0,0,0,283.87,442.21Z" transform="translate(-61.97 -360.39)"/><path class="cls-2" d="M118,417.1l-17,25-10.17,4.33-3.09,2.24s-8.49,11.54-14,15.47c0,0-12.68-14.11-11.25-31,.25-3,4.17-6.47,9.45-9.47,9.36-5.32,25.08-8.62,45.94-6.59" transform="translate(-61.97 -360.39)"/><path class="cls-3" d="M123.32,471c2-2.54-3.54-7.42-6.44-16.18-1.86-5.62-3.18-12.24-2.15-23,.49-5.14,1.25-9.64,3.91-14.07l0-.73H118s-9.28,3.61-13.83,6.11c0,0-12.82,6.32-17.66,19.13,0,0-6.36,14.86-7.36,25,0,0,8,4.85,21.78,6.18C104.75,473.87,120.67,474.43,123.32,471Z" transform="translate(-61.97 -360.39)"/><path class="cls-4" d="M118.68,417.68l25,17L148,444.83l2.24,3.1s11.55,8.49,15.47,14c0,0-14.1,12.68-31,11.26-3-.26-6.46-4.17-9.47-9.46-5.31-9.36-8.61-25.09-6.58-45.95" transform="translate(-61.97 -360.39)"/><path class="cls-5" d="M172.59,412.4c-2.55-2-7.43,3.54-16.19,6.44-5.61,1.86-12.23,3.18-23,2.15-5.14-.49-9.63-1.25-14.07-3.91l-.72,0v.7s3.6,9.28,6.11,13.83c0,0,6.32,12.82,19.12,17.67,0,0,14.86,6.36,25,7.36,0,0,4.85-8.05,6.18-21.78C175.44,431,176,415.05,172.59,412.4Z" transform="translate(-61.97 -360.39)"/><path class="cls-6" d="M119.24,417.08l17-25,10.17-4.32,3.1-2.24S158,374,163.46,370c0,0,12.68,14.11,11.26,31-.26,3-4.17,6.46-9.46,9.46-9.36,5.32-25.08,8.62-45.93,6.59" transform="translate(-61.97 -360.39)"/><path class="cls-7" d="M114,363.16c-2,2.54,3.53,7.43,6.43,16.19,1.86,5.61,3.18,12.23,2.15,23-.49,5.13-1.25,9.63-3.9,14.06l0,.73h.7s9.28-3.6,13.84-6.11c0,0,12.81-6.32,17.65-19.13,0,0,6.37-14.86,7.36-25,0,0-8-4.86-21.77-6.18C132.54,360.3,116.61,359.74,114,363.16Z" transform="translate(-61.97 -360.39)"/><path class="cls-8" d="M118.64,416.48l-25-17-4.33-10.16-2.24-3.1s-11.54-8.49-15.47-14c0,0,14.11-12.68,31-11.26,3,.26,6.46,4.17,9.46,9.46,5.32,9.36,8.62,25.09,6.59,45.95" transform="translate(-61.97 -360.39)"/><path class="cls-9" d="M64.73,421.76c2.54,2,7.43-3.54,16.19-6.44,5.6-1.86,12.23-3.18,23-2.15,5.14.49,9.63,1.25,14.06,3.91l.73,0v-.7s-3.6-9.28-6.11-13.84c0,0-6.32-12.81-19.13-17.66,0,0-14.85-6.36-25-7.36,0,0-4.85,8.05-6.18,21.78C61.88,403.18,61.31,419.11,64.73,421.76Z" transform="translate(-61.97 -360.39)"/></svg>