<?xml version="1.0" encoding="utf-8"?>
<svg version="1.1" xmlns:xlink="http://www.w3.org/1999/xlink" width="22px" height="22px" xmlns="http://www.w3.org/2000/svg">
  <g transform="matrix(1 0 0 1 -90 -197 )">
    <path d="M 22 18.70000000257813  C 22 20.522539675595876  20.522539675595915 22  18.70000000257813 22  L 3.299999997421871 22  C 1.4774603244040847 22  0 20.522539675595876  0 18.70000000257813  L 0 1.100000007734387  C 0 0.4924867786489031  0.4924867786489031 0  1.1000000077344652 0  L 16.499999987109433 0  C 17.10751321619484 0  17.599999994843742 0.4924867786489031  17.599999994843742 1.100000007734387  L 17.599999994843742 8.800000010312477  L 22 8.800000010312477  L 22 18.70000000257813  Z M 19.799999984531226 11  L 17.599999994843742 11  L 17.599999994843742 18.70000000257813  C 17.600092990859125 19.307447460355117  18.092552524791984 19.799831607901645  18.699999989687484 19.799831607901645  C 19.307447454583063 19.799831607901645  19.79990698851592 19.307447460355117  19.799999984531226 18.70000000257813  L 19.799999984531226 11  Z M 9.899999992265535 4.400000005156258  L 3.299999997421871 4.400000005156258  L 3.299999997421871 11  L 9.899999992265535 11  L 9.899999992265535 4.400000005156258  Z M 14.299999997421871 12  L 3.299999997421871 12  L 3.299999997421871 14  L 14.299999997421871 14  L 14.299999997421871 12  Z M 14.299999997421871 15  L 3.299999997421871 15  L 3.299999997421871 17.599999994843742  L 14.299999997421871 17.599999994843742  L 14.299999997421871 15  Z M 5.500000012890567 8.800000010312477  L 5.500000012890567 6.599999994843742  L 7.700000002578129 6.599999994843742  L 7.700000002578129 8.800000010312477  L 5.500000012890567 8.800000010312477  Z " fill-rule="nonzero" fill="#ffffff" stroke="none" transform="matrix(1 0 0 1 90 197 )" />
  </g>
</svg>